<?xml version="1.0" encoding="UTF-8" standalone="no"?>
<svg width="300" height="450" viewBox="0 0 300 450" xmlns="http://www.w3.org/2000/svg">
    <defs>
        <linearGradient id="bgGradient" x1="0%" y1="0%" x2="100%" y2="100%">
            <stop offset="0%" style="stop-color:#fff8dc;stop-opacity:1" />
            <stop offset="100%" style="stop-color:#ffd700;stop-opacity:0.2" />
        </linearGradient>
        
        <filter id="goldEffect">
            <feGaussianBlur in="SourceAlpha" stdDeviation="2"/>
            <feOffset dx="1" dy="1" result="offsetblur"/>
            <feComponentTransfer>
                <feFuncA type="linear" slope="0.5"/>
            </feComponentTransfer>
            <feMerge> 
                <feMergeNode/>
                <feMergeNode in="SourceGraphic"/>
            </feMerge>
        </filter>

        <!-- 铜钱纹样 -->
        <pattern id="coinPattern" x="0" y="0" width="50" height="50" patternUnits="userSpaceOnUse">
            <circle cx="25" cy="25" r="10" fill="#ffd700" fill-opacity="0.2"/>
            <rect x="15" y="15" width="20" height="20" fill="#ffd700" fill-opacity="0.2"/>
        </pattern>
    </defs>
    
    <!-- 卡片背景 -->
    <rect width="100%" height="100%" fill="url(#bgGradient)" rx="15"/>
    
    <!-- 装饰边框 -->
    <rect x="10" y="10" width="280" height="430" fill="none" 
          stroke="#daa520" stroke-width="2" rx="15"/>
    
    <!-- 标题区域 -->
    <text x="150" y="50" font-family="Microsoft YaHei" font-size="24" 
          fill="#daa520" text-anchor="middle" font-weight="bold">金蟾</text>
    
    <!-- 铜钱背景 -->
    <rect x="0" y="100" width="300" height="300" fill="url(#coinPattern)"/>
    
    <!-- 主图：金蟾 -->
    <g transform="translate(150,240)" filter="url(#goldEffect)">
        <!-- 蟾蜍身体 -->
        <ellipse cx="0" cy="0" rx="60" ry="40" fill="#ffd700"/>
        
        <!-- 蟾蜍纹理 -->
        <path d="M-40,-20 C-20,-30 20,-30 40,-20" fill="none" stroke="#daa520" stroke-width="2"/>
        <path d="M-40,0 C-20,-10 20,-10 40,0" fill="none" stroke="#daa520" stroke-width="2"/>
        <path d="M-40,20 C-20,10 20,10 40,20" fill="none" stroke="#daa520" stroke-width="2"/>
        
        <!-- 蟾蜍头部 -->
        <g transform="translate(0,-20)">
            <!-- 头部轮廓 -->
            <path d="M-20,-10 C-10,-20 10,-20 20,-10 C30,0 30,10 20,20 C10,30 -10,30 -20,20 C-30,10 -30,0 -20,-10"
                  fill="#ffd700"/>
            
            <!-- 眼睛 -->
            <circle cx="-10" cy="0" r="5" fill="#daa520"/>
            <circle cx="10" cy="0" r="5" fill="#daa520"/>
            <circle cx="-10" cy="0" r="2" fill="#000"/>
            <circle cx="10" cy="0" r="2" fill="#000"/>
        </g>
        
        <!-- 三足 -->
        <path d="M-30,30 L-40,50 M0,35 L0,55 M30,30 L40,50"
              stroke="#ffd700" stroke-width="10" stroke-linecap="round"/>
        
        <!-- 铜钱 -->
        <g transform="translate(0,0)">
            <circle cx="0" cy="0" r="15" fill="#daa520"/>
            <rect x="-5" y="-5" width="10" height="10" fill="#ffd700"/>
        </g>
    </g>
    
    <!-- 描述文字 -->
    <text x="150" y="400" font-family="Microsoft YaHei" font-size="14" 
          fill="#666" text-anchor="middle">象征财富、繁荣和好运</text>
    <text x="150" y="420" font-family="Microsoft YaHei" font-size="14" 
          fill="#666" text-anchor="middle">代表丰盛与机遇</text>
</svg>
