<?xml version="1.0" encoding="UTF-8" standalone="no"?>
<svg width="300" height="450" viewBox="0 0 300 450" xmlns="http://www.w3.org/2000/svg">
    <defs>
        <linearGradient id="bgGradient" x1="0%" y1="0%" x2="100%" y2="100%">
            <stop offset="0%" style="stop-color:#fff0f5;stop-opacity:1" />
            <stop offset="100%" style="stop-color:#ffb6c1;stop-opacity:0.3" />
        </linearGradient>
        
        <filter id="softGlow">
            <feGaussianBlur in="SourceAlpha" stdDeviation="3"/>
            <feOffset dx="2" dy="2" result="offsetblur"/>
            <feComponentTransfer>
                <feFuncA type="linear" slope="0.3"/>
            </feComponentTransfer>
            <feMerge> 
                <feMergeNode/>
                <feMergeNode in="SourceGraphic"/>
            </feMerge>
        </filter>

        <!-- 心形图案 -->
        <pattern id="heartPattern" x="0" y="0" width="40" height="40" patternUnits="userSpaceOnUse">
            <path d="M20,10 C25,0 35,0 40,10 C45,20 35,30 20,40 C5,30 -5,20 0,10 C5,0 15,0 20,10"
                  fill="#ffb6c1" fill-opacity="0.2"/>
        </pattern>
    </defs>
    
    <!-- 卡片背景 -->
    <rect width="100%" height="100%" fill="url(#bgGradient)" rx="15"/>
    
    <!-- 装饰边框 -->
    <rect x="10" y="10" width="280" height="430" fill="none" 
          stroke="#ff69b4" stroke-width="2" rx="15"/>
    
    <!-- 标题区域 -->
    <text x="150" y="50" font-family="Microsoft YaHei" font-size="24" 
          fill="#ff69b4" text-anchor="middle" font-weight="bold">同心结</text>
    
    <!-- 心形背景 -->
    <rect x="0" y="100" width="300" height="300" fill="url(#heartPattern)"/>
    
    <!-- 主图：同心结 -->
    <g transform="translate(150,240)" filter="url(#softGlow)">
        <!-- 同心结主体 -->
        <g transform="scale(1.2)">
            <!-- 左心 -->
            <path d="M-40,0 C-50,-20 -30,-40 -10,-40 C10,-40 20,-20 20,0 C20,20 10,40 -10,40 C-30,40 -50,20 -40,0"
                  fill="#ff69b4" stroke="#ff1493" stroke-width="2"/>
            
            <!-- 右心 -->
            <path d="M40,0 C50,-20 30,-40 10,-40 C-10,-40 -20,-20 -20,0 C-20,20 -10,40 10,40 C30,40 50,20 40,0"
                  fill="#ff69b4" stroke="#ff1493" stroke-width="2"/>
            
            <!-- 中心装饰 -->
            <circle cx="0" cy="0" r="10" fill="#fff"/>
            <path d="M-7,-7 L7,7 M-7,7 L7,-7" stroke="#ff69b4" stroke-width="2"/>
        </g>
        
        <!-- 丝带装饰 -->
        <path d="M-60,40 C-40,60 40,60 60,40" 
              fill="none" stroke="#ff69b4" stroke-width="4"/>
        <path d="M-50,50 L-70,70 M50,50 L70,70" 
              stroke="#ff69b4" stroke-width="4"/>
    </g>
    
    <!-- 装饰元素 -->
    <g transform="translate(150,180)" opacity="0.3">
        <path d="M-80,-20 C-60,-40 -40,-40 -20,-20 C0,0 20,0 40,-20 C60,-40 80,-40 100,-20"
              fill="none" stroke="#ff69b4" stroke-width="2"/>
    </g>
    
    <!-- 描述文字 -->
    <text x="150" y="400" font-family="Microsoft YaHei" font-size="14" 
          fill="#666" text-anchor="middle">象征爱情、团结和永恒</text>
    <text x="150" y="420" font-family="Microsoft YaHei" font-size="14" 
          fill="#666" text-anchor="middle">代表情感连接</text>
</svg>
