<?xml version="1.0" encoding="UTF-8" standalone="no"?>
<svg width="300" height="450" viewBox="0 0 300 450" xmlns="http://www.w3.org/2000/svg">
    <defs>
        <linearGradient id="bgGradient" x1="0%" y1="0%" x2="100%" y2="100%">
            <stop offset="0%" style="stop-color:#f0f0f0;stop-opacity:1" />
            <stop offset="100%" style="stop-color:#c0c0c0;stop-opacity:1" />
        </linearGradient>
        
        <filter id="metallicEffect">
            <feGaussianBlur in="SourceAlpha" stdDeviation="3"/>
            <feOffset dx="2" dy="2" result="offsetblur"/>
            <feComponentTransfer>
                <feFuncA type="linear" slope="0.5"/>
            </feComponentTransfer>
            <feMerge> 
                <feMergeNode/>
                <feMergeNode in="SourceGraphic"/>
            </feMerge>
        </filter>

        <!-- 云纹图案 -->
        <pattern id="cloudPattern" x="0" y="0" width="100" height="100" patternUnits="userSpaceOnUse">
            <path d="M25,60 C10,60 0,50 0,35 C0,20 10,10 25,10 C30,0 40,0 50,5 C60,0 70,0 75,10 C90,10 100,20 100,35 C100,50 90,60 75,60 C70,70 60,70 50,65 C40,70 30,70 25,60"
                  fill="#e0e0e0" fill-opacity="0.3"/>
        </pattern>
    </defs>
    
    <!-- 卡片背景 -->
    <rect width="100%" height="100%" fill="url(#bgGradient)" rx="15"/>
    
    <!-- 装饰边框 -->
    <rect x="10" y="10" width="280" height="430" fill="none" 
          stroke="#a0a0a0" stroke-width="2" rx="15"/>
    
    <!-- 标题区域 -->
    <text x="150" y="50" font-family="Microsoft YaHei" font-size="24" 
          fill="#808080" text-anchor="middle" font-weight="bold">银龙</text>
    
    <!-- 云纹背景 -->
    <rect x="0" y="100" width="300" height="300" fill="url(#cloudPattern)"/>
    
    <!-- 主图：银龙 -->
    <g transform="translate(150,240)" filter="url(#metallicEffect)">
        <!-- 龙身 -->
        <path d="M-80,-40 C-60,-60 -20,-40 0,-20 C20,0 20,20 0,40 C-20,60 -40,40 -30,20 C-20,0 0,0 20,-20 C40,-40 60,-20 80,0"
              fill="none" stroke="#c0c0c0" stroke-width="20" stroke-linecap="round"/>
        
        <!-- 龙鳞 -->
        <path d="M-78,-38 C-58,-58 -18,-38 2,-18 C22,2 22,22 2,42 C-18,62 -38,42 -28,22 C-18,2 2,2 22,-18 C42,-38 62,-18 82,2"
              fill="none" stroke="#a0a0a0" stroke-width="1" stroke-dasharray="4,4"/>
        
        <!-- 龙头 -->
        <g transform="translate(-80,-40)">
            <path d="M-15,-15 C-10,-20 10,-20 15,-15 C20,-10 20,10 15,15 C10,20 -10,20 -15,15 C-20,10 -20,-10 -15,-15"
                  fill="#c0c0c0"/>
            <circle cx="5" cy="-5" r="3" fill="#808080"/>
            
            <!-- 龙角 -->
            <path d="M-5,-15 C-10,-25 -5,-30 0,-25 M5,-15 C10,-25 5,-30 0,-25"
                  fill="none" stroke="#a0a0a0" stroke-width="3"/>
        </g>
        
        <!-- 龙爪 -->
        <g transform="translate(0,20)">
            <path d="M-5,-5 L5,5 M-5,5 L5,-5"
                  stroke="#a0a0a0" stroke-width="3"/>
        </g>
    </g>
    
    <!-- 描述文字 -->
    <text x="150" y="400" font-family="Microsoft YaHei" font-size="14" 
          fill="#666" text-anchor="middle">象征力量、权威和尊贵</text>
    <text x="150" y="420" font-family="Microsoft YaHei" font-size="14" 
          fill="#666" text-anchor="middle">代表领导力与影响力</text>
</svg>
