<?xml version="1.0" encoding="UTF-8"?>
<svg width="120" height="180" viewBox="0 0 120 180" fill="none" xmlns="http://www.w3.org/2000/svg">
    <!-- 背景 -->
    <rect width="120" height="180" rx="10" fill="#E0FFFF"/>
    
    <!-- 双鱼玉佩整体轮廓 -->
    <path d="M40 50 C40 50, 60 40, 80 50 C100 60, 100 90, 80 100 C60 110, 40 110, 40 100 C20 90, 20 60, 40 50" 
          stroke="#2F4F4F" stroke-width="3" fill="#98FB98" opacity="0.8"/>
    
    <!-- 鱼1 -->
    <path d="M50 60 C55 55, 65 55, 70 60 C75 65, 75 75, 70 80 C65 85, 55 85, 50 80 C45 75, 45 65, 50 60" 
          fill="#2F4F4F"/>
    
    <!-- 鱼2 -->
    <path d="M50 80 C55 75, 65 75, 70 80 C75 85, 75 95, 70 100 C65 105, 55 105, 50 100 C45 95, 45 85, 50 80" 
          fill="#2F4F4F"/>
    
    <!-- 装饰性纹路 -->
    <path d="M45 70 Q60 75 75 70" stroke="#2F4F4F" stroke-width="1" fill="none"/>
    <path d="M45 90 Q60 95 75 90" stroke="#2F4F4F" stroke-width="1" fill="none"/>
    
    <!-- 文字 -->
    <text x="60" y="170" text-anchor="middle" fill="#2F4F4F" font-size="14" font-family="Arial">双鱼玉佩</text>
</svg>
