<?xml version="1.0" encoding="UTF-8" standalone="no"?>
<svg width="300" height="450" viewBox="0 0 300 450" xmlns="http://www.w3.org/2000/svg">
    <!-- 背景和滤镜定义 -->
    <defs>
        <linearGradient id="skyGradient" x1="0%" y1="0%" x2="0%" y2="100%">
            <stop offset="0%" style="stop-color:#1a1a3a;stop-opacity:1" />
            <stop offset="100%" style="stop-color:#4a4a6a;stop-opacity:1" />
        </linearGradient>
        
        <radialGradient id="lightBeam" cx="50%" cy="30%" r="70%">
            <stop offset="0%" style="stop-color:#fff;stop-opacity:0.7" />
            <stop offset="100%" style="stop-color:#fff;stop-opacity:0" />
        </radialGradient>
        
        <filter id="glow">
            <feGaussianBlur in="SourceGraphic" stdDeviation="2" result="blur" />
            <feComposite in="blur" in2="SourceGraphic" operator="over" />
        </filter>
    </defs>
    
    <!-- 卡片背景 -->
    <rect width="100%" height="100%" fill="url(#skyGradient)" rx="15"/>
    
    <!-- 海面 -->
    <path d="M0,350 C50,340 100,360 150,350 C200,340 250,360 300,350 L300,450 L0,450 Z"
          fill="#2a4a6a"/>
    
    <!-- 光束 -->
    <path d="M150,150 L50,450 L250,450 Z" fill="url(#lightBeam)" opacity="0.3"/>
    
    <!-- 灯塔主体 -->
    <g transform="translate(150,250)">
        <!-- 灯塔底座 -->
        <path d="M-30,80 L30,80 L20,-80 L-20,-80 Z" fill="#ddd"/>
        
        <!-- 灯塔条纹 -->
        <g stroke="#e60012" stroke-width="10">
            <line x1="-25" y1="60" x2="25" y2="60"/>
            <line x1="-23" y1="20" x2="23" y2="20"/>
            <line x1="-21" y1="-20" x2="21" y2="-20"/>
            <line x1="-20" y1="-60" x2="20" y2="-60"/>
        </g>
        
        <!-- 灯塔顶部 -->
        <path d="M-20,-80 L20,-80 L15,-100 L-15,-100 Z" fill="#666"/>
        <rect x="-15" y="-115" width="30" height="15" fill="#888"/>
        
        <!-- 灯房 -->
        <g filter="url(#glow)">
            <circle cx="0" cy="-107" r="8" fill="#ffd700"/>
            <circle cx="0" cy="-107" r="5" fill="#fff"/>
        </g>
    </g>
    
    <!-- 星星 -->
    <g fill="#fff">
        <circle cx="50" cy="50" r="1"/>
        <circle cx="80" cy="70" r="1"/>
        <circle cx="200" cy="40" r="1"/>
        <circle cx="250" cy="80" r="1"/>
        <circle cx="150" cy="30" r="1"/>
    </g>
    
    <!-- 标题 -->
    <text x="150" y="50" font-family="Microsoft YaHei" font-size="24" 
          fill="#fff" text-anchor="middle" font-weight="bold">灯塔</text>
</svg>
